<svg viewBox="0 0 22 18" xmlns="http://www.w3.org/2000/svg">
<path d="M2.97402 1.83496C2.28823 1.83496 1.72402 2.39917 1.72402 3.08496V15.085C1.72402 15.7707 2.28823 16.335 2.97402 16.335H18.974C19.6598 16.335 20.224 15.7707 20.224 15.085V3.08496C20.224 2.39917 19.6598 1.83496 18.974 1.83496H2.97402ZM0.224018 3.08496C0.224018 1.57075 1.4598 0.334961 2.97402 0.334961H18.974C20.4882 0.334961 21.724 1.57075 21.724 3.08496V15.085C21.724 16.5992 20.4882 17.835 18.974 17.835H2.97402C1.4598 17.835 0.224018 16.5992 0.224018 15.085V3.08496Z" fill="#FFFFFF"/>
<path d="M0.359594 2.65486C0.59713 2.31553 1.06478 2.233 1.40411 2.47054L10.974 9.16947L20.5439 2.47054C20.8833 2.233 21.3509 2.31553 21.5884 2.65486C21.826 2.9942 21.7435 3.46185 21.4041 3.69938L11.4041 10.6994C11.1459 10.8802 10.8022 10.8802 10.5439 10.6994L0.543921 3.69938C0.204584 3.46185 0.122058 2.9942 0.359594 2.65486Z" fill="#FFFFFF"/>
</svg>
