<svg viewBox="0 0 22 21" xmlns="http://www.w3.org/2000/svg">
<path d="M15 7.75C13.6076 7.75 12.2723 8.30312 11.2877 9.28769C10.3031 10.2723 9.75 11.6076 9.75 13V19.25H12.25V13C12.25 12.2707 12.5397 11.5712 13.0555 11.0555C13.5712 10.5397 14.2707 10.25 15 10.25C15.7293 10.25 16.4288 10.5397 16.9445 11.0555C17.4603 11.5712 17.75 12.2707 17.75 13V19.25H20.25V13C20.25 11.6076 19.6969 10.2723 18.7123 9.28769C17.7277 8.30312 16.3924 7.75 15 7.75ZM10.227 8.22703C11.4929 6.96116 13.2098 6.25 15 6.25C16.7902 6.25 18.5071 6.96116 19.773 8.22703C21.0388 9.4929 21.75 11.2098 21.75 13V20C21.75 20.4142 21.4142 20.75 21 20.75H17C16.5858 20.75 16.25 20.4142 16.25 20V13C16.25 12.6685 16.1183 12.3505 15.8839 12.1161C15.6495 11.8817 15.3315 11.75 15 11.75C14.6685 11.75 14.3505 11.8817 14.1161 12.1161C13.8817 12.3505 13.75 12.6685 13.75 13V20C13.75 20.4142 13.4142 20.75 13 20.75H9C8.58579 20.75 8.25 20.4142 8.25 20V13C8.25 11.2098 8.96116 9.4929 10.227 8.22703Z" fill="#FFFFFF"/>
<path d="M0.25 8C0.25 7.58579 0.585786 7.25 1 7.25H5C5.41421 7.25 5.75 7.58579 5.75 8V20C5.75 20.4142 5.41421 20.75 5 20.75H1C0.585786 20.75 0.25 20.4142 0.25 20V8ZM1.75 8.75V19.25H4.25V8.75H1.75Z" fill="#FFFFFF"/>
<path d="M3 1.75C2.30964 1.75 1.75 2.30964 1.75 3C1.75 3.69036 2.30964 4.25 3 4.25C3.69036 4.25 4.25 3.69036 4.25 3C4.25 2.30964 3.69036 1.75 3 1.75ZM0.25 3C0.25 1.48122 1.48122 0.25 3 0.25C4.51878 0.25 5.75 1.48122 5.75 3C5.75 4.51878 4.51878 5.75 3 5.75C1.48122 5.75 0.25 4.51878 0.25 3Z" fill="#FFFFFF"/>
</svg>
